<svg xmlns="http://www.w3.org/2000/svg" version="1.1" viewBox="0 0 495.73 205.31" width="150" height="66">
	<path fill="#fff" d="M185.35,1.82c-32.43,0-56.95,22.82-61.43,56.91l-11.6,90.74c-1.05,8.39-1.05,16.26-6.33,16.26-4.75,0-5.54-5.77-6.86-15.74l-10.28-80.78c-4.75-37.24-18.46-53.77-44.03-53.77C17.66,15.44,2.63,34.59,2.63,67.11v134.81h27.42V64.76c0-12.85,5.01-19.15,14.24-19.15,7.38,0,11.6,5.77,13.18,17.31l11.6,90.22c3.69,29.11,13.45,50.36,39.81,50.36,30.06,0,37.7-23.6,41.39-51.41l9.23-71.86c3.43-26.75,10.81-35.93,24.78-35.93,12.66,0,18.98,9.7,18.98,25.96v131.66h44.03V72.63c0-42.75-23.99-70.81-61.96-70.81M321.4,2.34h-44.82v42.75h44.82V2.34ZM447.96,66.34c-8.44-6.03-19.77-9.44-32.43-9.44-40.08,0-71.19,32-71.19,73.17s30.85,73.44,70.4,73.44c15.56,0,27.68-4.98,34.8-12.06v10.49h42.45V2.34h-44.03v63.99h0ZM320.87,58.99h-43.77v142.94h43.77V58.99ZM418.17,160.49c-16.61,0-29.79-13.38-29.79-30.42s13.18-30.16,29.79-30.16,29.79,13.11,29.79,30.16-13.18,30.42-29.79,30.42"></path>
</svg>
